<?xml version="1.0" encoding="UTF-8"?>
<svg version="1.1" xmlns="http://www.w3.org/2000/svg" width="2000" height="1999">
<path d="M0 0 C1.12738712 0.00040031 1.12738712 0.00040031 2.27754974 0.00080872 C25.55067878 0.01116989 48.73280081 0.24711907 71.9375 2.1875 C72.74054565 2.25302063 73.54359131 2.31854126 74.37097168 2.38604736 C150.19608194 8.58635064 224.49321332 22.88787681 296.9375 46.1875 C298.22236208 46.59611657 299.50735773 47.00431335 300.79248047 47.41210938 C344.99824424 61.4698902 387.52941478 79.72712876 429.07885742 100.27087402 C431.89720413 101.66079688 434.72250641 103.03642706 437.546875 104.4140625 C451.31203437 111.16431656 464.6924941 118.46972065 477.9375 126.1875 C479.01966797 126.8170459 480.10183594 127.4465918 481.21679688 128.09521484 C503.32949145 140.99428668 524.93938564 154.53797327 545.9375 169.1875 C546.65212402 169.68459473 547.36674805 170.18168945 548.10302734 170.69384766 C564.40102305 182.04670902 580.44993206 193.74772082 595.9375 206.1875 C596.57252441 206.69635742 597.20754883 207.20521484 597.86181641 207.72949219 C605.68852392 214.01147992 613.41783985 220.38998628 621.0065918 226.95776367 C624.36531041 229.8605433 627.77465304 232.67397109 631.25 235.4375 C637.61805438 240.60332583 643.50096591 246.27522941 649.43359375 251.9296875 C652.69553031 255.03725636 656.01636962 258.06978964 659.359375 261.08984375 C666.94764494 267.99334036 674.16935964 275.26917321 681.41186523 282.53149414 C683.75977056 284.884793 686.11301968 287.2326539 688.46679688 289.58007812 C689.98469597 291.09863758 691.50228506 292.61750696 693.01953125 294.13671875 C693.71133987 294.82650314 694.4031485 295.51628754 695.11592102 296.22697449 C699.02456221 300.154242 702.76022485 304.17969004 706.37104797 308.38293457 C708.93322422 311.33458237 711.6308173 314.1573835 714.3125 317 C719.03946376 322.04660944 723.51259143 327.22084148 727.8359375 332.62109375 C729.91751427 335.16309363 732.0878838 337.58279335 734.3125 340 C738.29433587 344.37450826 741.95492083 348.93279075 745.57641602 353.60400391 C748.53795484 357.42064568 751.55709829 361.17961717 754.62988281 364.90722656 C761.82293903 373.64381985 768.57763109 382.65912615 775.21875 391.8203125 C776.87750511 394.10487067 778.54675446 396.38137145 780.21875 398.65625 C833.71885045 471.71178296 876.32908909 553.78477214 906.9375 641.1875 C907.17341858 641.85896057 907.40933716 642.53042114 907.65240479 643.222229 C935.65762709 723.02175343 952.20011903 806.14831868 915.60168457 1252.12524414 C914.94375695 1254.16807253 914.29426153 1256.21338949 913.64746094 1258.25976562 C888.41892558 1337.95815433 851.19389821 1415.59878289 801.21972656 1490.31347656 C799.77140287 1492.43025735 798.33494532 1494.55487164 796.8984375 1496.6796875 C781.06144357 1520.04319726 764.287285 1542.71576912 746.32910156 1564.49609375 C744.33131881 1566.92427601 742.35568576 1569.37036415 740.375 1571.8125 C732.63014339 1581.2595229 724.66364035 1590.50746633 716.38671875 1599.4921875 C714.46670819 1601.60511778 712.58372738 1603.73784255 710.71240234 1605.89331055 C699.9006761 1618.25924932 688.34614935 1629.942696 676.71899414 1641.53637695 C674.4735842 1643.77635186 672.23367161 1646.02172696 669.99414062 1648.26757812 C668.53938354 1649.72167542 667.08431682 1651.17546303 665.62890625 1652.62890625 C664.97354385 1653.28629288 664.31818146 1653.9436795 663.64295959 1654.62098694 C659.80508808 1658.43970718 655.86022768 1662.07857018 651.75469971 1665.6084137 C648.79989539 1668.1760407 645.97195973 1670.87671996 643.125 1673.5625 C638.07839056 1678.28946376 632.90415852 1682.76259143 627.50390625 1687.0859375 C624.96190637 1689.16751427 622.54220665 1691.3378838 620.125 1693.5625 C615.16032442 1698.08082462 609.93662603 1702.19311936 604.63671875 1706.3046875 C601.53713821 1708.70991609 598.47574397 1711.15884597 595.42333984 1713.62353516 C587.73850121 1719.82423807 579.91926779 1725.82159343 571.97363281 1731.68408203 C570.65037947 1732.66113168 569.32928674 1733.64111673 568.01074219 1734.62451172 C538.72973591 1756.44042127 507.64265904 1776.11794319 475.9375 1794.1875 C474.86338867 1794.80077148 473.78927734 1795.41404297 472.68261719 1796.04589844 C430.0624874 1820.26216658 385.76520525 1840.83906129 339.9375 1858.1875 C339.25558594 1858.44595703 338.57367187 1858.70441406 337.87109375 1858.97070312 C261.75045808 1887.76728322 181.9127299 1906.19982525 71.9375 1917.1875 C71.18088074 1917.24915344 70.42426147 1917.31080688 69.64471436 1917.37432861 C23.5394819 1921.08265114 -23.96557776 1920.87610259 -70.0625 1917.1875 C-71.2420224 1917.09628876 -71.2420224 1917.09628876 -72.44537354 1917.00323486 C-116.04512372 1913.63059753 -159.30715464 1907.35872675 -202.0625 1898.1875 C-202.88451904 1898.01154297 -203.70653809 1897.83558594 -204.5534668 1897.65429688 C-227.97704865 1892.62041194 -251.06699283 1886.70405992 -274.0088501 1879.8034668 C-276.01409782 1879.20201763 -278.02111307 1878.60689287 -280.02880859 1878.01367188 C-346.27883703 1858.39326975 -411.5736512 1830.69524417 -471.25488281 1795.81787109 C-474.30036463 1794.04937305 -477.36327218 1792.31396249 -480.4296875 1790.58203125 C-494.04784937 1782.86262385 -507.28703824 1774.72168718 -520.30419922 1766.02832031 C-523.05217248 1764.19439233 -525.80820332 1762.37318567 -528.56640625 1760.5546875 C-554.07411619 1743.70076233 -578.82597405 1725.79584499 -602.4296875 1706.35546875 C-604.17979526 1704.91435627 -605.93499612 1703.47940597 -607.6953125 1702.05078125 C-618.17708247 1693.54007298 -628.43640504 1684.78517269 -638.3671875 1675.63671875 C-640.48011778 1673.71670819 -642.61284255 1671.83372738 -644.76831055 1669.96240234 C-657.13424932 1659.1506761 -668.817696 1647.59614935 -680.41137695 1635.96899414 C-682.65135186 1633.7235842 -684.89672696 1631.48367161 -687.14257812 1629.24414062 C-688.59667542 1627.78938354 -690.05046303 1626.33431682 -691.50390625 1624.87890625 C-692.48998619 1623.89586266 -692.48998619 1623.89586266 -693.49598694 1622.89295959 C-697.31470718 1619.05508808 -700.95357018 1615.11022768 -704.4834137 1611.00469971 C-707.0510407 1608.04989539 -709.75171996 1605.22195973 -712.4375 1602.375 C-717.16446376 1597.32839056 -721.63759143 1592.15415852 -725.9609375 1586.75390625 C-728.04251427 1584.21190637 -730.2128838 1581.79220665 -732.4375 1579.375 C-736.41933587 1575.00049174 -740.07992083 1570.44220925 -743.70141602 1565.77099609 C-746.66295484 1561.95435432 -749.68209829 1558.19538283 -752.75488281 1554.46777344 C-759.94452996 1545.73532076 -766.69677148 1536.72456961 -773.33496094 1527.56787109 C-775.02109753 1525.24454834 -776.71654865 1522.92829941 -778.4140625 1520.61328125 C-785.92996852 1510.32994234 -793.0906698 1499.84610436 -800.0625 1489.1875 C-800.51834473 1488.49333984 -800.97418945 1487.79917969 -801.44384766 1487.08398438 C-848.39660632 1415.51439614 -885.87519583 1338.18754705 -959.0625 974.1875 C-959.08183594 973.45756836 -959.10117187 972.72763672 -959.12109375 971.97558594 C-959.34810926 963.0390331 -959.29920309 954.1230418 -959.0625 945.1875 C-959.04058594 944.3428418 -959.01867187 943.49818359 -958.99609375 942.62792969 C-957.09588237 871.54502239 -948.85580632 801.34454994 -932.0625 732.1875 C-931.61487305 730.33535889 -931.61487305 730.33535889 -931.15820312 728.44580078 C-926.13130181 707.84666446 -920.16778584 687.57699754 -913.75524902 667.37115479 C-913.08604009 665.26170211 -912.42035342 663.15116173 -911.75488281 661.04052734 C-891.61161129 597.38792375 -863.72256491 535.28803509 -829.65527344 477.88085938 C-828.23859102 475.48526764 -826.83722381 473.08191348 -825.4453125 470.671875 C-811.5849454 446.71925274 -796.15645403 423.68763774 -780.0625 401.1875 C-779.52979492 400.43936035 -778.99708984 399.6912207 -778.44824219 398.92041016 C-767.68847796 383.81646305 -756.26820001 369.35417588 -744.5390625 354.99609375 C-743.23202459 353.3951452 -741.92826644 351.79152024 -740.625 350.1875 C-732.50648412 340.21332335 -724.26615498 330.37387755 -715.546875 320.91796875 C-713.61286464 318.7923819 -711.71681845 316.64717164 -709.83325195 314.47753906 C-698.8902023 301.96079834 -687.18477342 290.14659067 -675.41674805 278.41137695 C-673.09891162 276.09897277 -670.78656696 273.78117102 -668.47460938 271.46289062 C-666.97427936 269.96322043 -665.4736397 268.46385994 -663.97265625 266.96484375 C-662.95680199 265.94595314 -662.95680199 265.94595314 -661.92042542 264.90647888 C-658.02906953 261.03394462 -654.03601506 257.33719089 -649.87200928 253.75889587 C-646.91912794 251.19458432 -644.09431622 248.49578618 -641.25 245.8125 C-636.20339056 241.08553624 -631.02915852 236.61240857 -625.62890625 232.2890625 C-623.08690637 230.20748573 -620.66720665 228.0371162 -618.25 225.8125 C-613.28047891 221.28976551 -608.05142712 217.17385969 -602.74609375 213.05859375 C-599.71821057 210.7090844 -596.72999018 208.31487162 -593.7512207 205.90356445 C-523.89715456 149.43921297 -443.95959638 103.46290242 -340.08874512 61.95709229 C-338.08722992 61.19689272 -336.08707328 60.43319239 -334.08691406 59.66943359 C-253.0060851 28.81014395 -166.89983322 10.14325365 -55.0625 1.1875 C-54.27702789 1.14017731 -53.49155579 1.09285461 -52.68228149 1.0440979 C-35.13077554 0.01370535 -17.57484951 -0.01400134 0 0 Z " fill="#000000" transform="translate(999.0625,39.8125)"/>
<path d="M0 0 C0.72488239 0.00026688 1.44976479 0.00053375 2.19661331 0.00080872 C25.84616873 0.01171202 49.41292406 0.32215511 73 2.1875 C73.83631958 2.25302063 74.67263916 2.31854126 75.53430176 2.38604736 C158.52524783 8.95377315 239.98113059 24.88457604 319 51.1875 C319.76358826 51.4412439 320.52717651 51.69498779 321.31390381 51.9564209 C386.25745071 73.59339586 449.42462332 102.38824377 508.19677734 137.51367188 C510.90234976 139.12919221 513.61671469 140.72905521 516.33203125 142.328125 C528.59732297 149.61492201 540.50595948 157.40256186 552.375 165.3125 C553.12487183 165.81174988 553.87474365 166.31099976 554.64733887 166.82537842 C568.88205143 176.31661747 582.93016185 186.07691327 596.6875 196.25 C597.47874268 196.83450928 598.26998535 197.41901855 599.08520508 198.02124023 C606.16684782 203.27429986 613.12758736 208.66414462 620 214.1875 C620.6403418 214.7016748 621.28068359 215.21584961 621.94042969 215.74560547 C630.51909554 222.64709861 639.00664201 229.64790815 647.37597656 236.80175781 C649.06714221 238.24479092 650.76374619 239.68124817 652.4609375 241.1171875 C658.94559384 246.61964603 665.29770349 252.23275209 671.51855469 258.03222656 C674.38395334 260.70318113 677.27672997 263.32480396 680.25 265.875 C683.86617434 268.99736902 687.20551021 272.35317976 690.53125 275.78125 C692.5144919 277.71428324 694.52196373 279.51521726 696.62109375 281.31640625 C701.83937335 285.84637397 706.68873253 290.73035987 711.5625 295.625 C712.46935547 296.52798828 713.37621094 297.43097656 714.31054688 298.36132812 C718.89550759 302.95293853 723.33282728 307.60310698 727.55834961 312.52758789 C729.28256901 314.51284915 731.10877606 316.36149068 733 318.1875 C736.17089998 321.31595964 739.1256996 324.55605352 742.02734375 327.93359375 C743.96458906 330.14704037 745.95084932 332.30936491 747.95166016 334.46533203 C752.70810378 339.59380624 757.24107436 344.83360754 761.62890625 350.28515625 C764.31831577 353.57713528 767.09181954 356.78744494 769.875 360 C775.28625049 366.27284932 780.43991422 372.71375651 785.5078125 379.265625 C787.11074785 381.33013859 788.72632058 383.38432476 790.34375 385.4375 C797.95511867 395.1215127 805.30516414 404.96002897 812.44287109 414.99804688 C813.95332862 417.12187614 815.47040237 419.24084619 816.98828125 421.359375 C868.86906828 494.03194949 910.28564352 573.85085618 1001 1010.1875 C1000.98211426 1011.3955127 1000.96422852 1012.60352539 1000.94580078 1013.84814453 C999.51907011 1104.00521907 986.40704321 1193.7142696 897 1444.1875 C896.5059668 1445.20424805 896.01193359 1446.22099609 895.50292969 1447.26855469 C888.69481003 1461.23980485 881.40071629 1474.84425157 873.64550781 1488.31103516 C871.98065685 1491.2213132 870.34204608 1494.14491056 868.7109375 1497.07421875 C862.36091163 1508.46546485 855.75495817 1519.61424036 848.68212891 1530.57080078 C846.78856068 1533.51641242 844.91512132 1536.47432694 843.04296875 1539.43359375 C836.35368652 1549.98683218 829.62223579 1560.43436259 822.22167969 1570.50341797 C820.88770332 1572.34230065 819.5860435 1574.20125448 818.2890625 1576.06640625 C797.25121421 1606.30585548 774.13208631 1635.58721303 749.2265625 1662.74609375 C747.30866793 1664.84904833 745.42623955 1666.97419156 743.5625 1669.125 C737.18579611 1676.45142574 730.65098988 1683.65033228 723.70922852 1690.44580078 C722.02752308 1692.15945406 720.47339526 1693.93325887 718.91796875 1695.76171875 C714.5213449 1700.81407096 709.80721988 1705.5266367 705.0625 1710.25 C704.20720703 1711.10916016 703.35191406 1711.96832031 702.47070312 1712.85351562 C698.0033774 1717.31402621 693.46599546 1721.61464414 688.67749023 1725.72827148 C686.68735167 1727.45946901 684.83177222 1729.29030734 683 1731.1875 C679.87154036 1734.35839998 676.63144648 1737.3131996 673.25390625 1740.21484375 C671.04045963 1742.15208906 668.87813509 1744.13834932 666.72216797 1746.13916016 C661.59369376 1750.89560378 656.35389246 1755.42857436 650.90234375 1759.81640625 C647.61036968 1762.50581171 644.39995032 1765.27920396 641.1875 1768.0625 C634.85520971 1773.52853991 628.34017013 1778.72010366 621.72802734 1783.84179688 C620.0352856 1785.1600213 618.35381445 1786.49124402 616.67578125 1787.828125 C606.97684707 1795.54476423 597.03074189 1802.90887502 587 1810.1875 C586.34821777 1810.66203613 585.69643555 1811.13657227 585.02490234 1811.62548828 C547.8377775 1838.60399931 508.55114964 1862.63370407 468 1884.1875 C466.37118896 1885.0532666 466.37118896 1885.0532666 464.70947266 1885.93652344 C398.89904111 1920.7626373 328.99744277 1947.73839204 73 1997.1875 C72.22039917 1997.24915344 71.44079834 1997.31080688 70.63757324 1997.37432861 C23.85875413 2001.01843558 -24.23036265 2000.85226683 -71 1997.1875 C-71.82218018 1997.12433594 -72.64436035 1997.06117187 -73.49145508 1996.99609375 C-130.03877267 1992.6244584 -185.94386068 1983.82320955 -241 1970.1875 C-241.78679138 1969.99327454 -242.57358276 1969.79904907 -243.38421631 1969.59893799 C-319.68841356 1950.71655168 -393.26148579 1922.12121667 -497.25048828 1866.80615234 C-500.79208285 1864.72119656 -504.37522166 1862.71544505 -507.96166992 1860.70898438 C-519.30700454 1854.3446063 -530.19253015 1847.37763204 -541.01904297 1840.17138672 C-544.07183801 1838.13969036 -547.13117405 1836.11812956 -550.19140625 1834.09765625 C-576.46967374 1816.70981647 -602.03703564 1798.39415067 -626.3671875 1778.35546875 C-628.11729526 1776.91435627 -629.87249612 1775.47940597 -631.6328125 1774.05078125 C-641.91649203 1765.70091318 -651.97153262 1757.09340628 -661.78125 1748.19140625 C-663.79308393 1746.37438018 -665.82660434 1744.58805608 -667.875 1742.8125 C-675.21782423 1736.40800828 -682.44316734 1729.85843042 -689.26025391 1722.89477539 C-690.96308179 1721.22372917 -692.72511533 1719.68111319 -694.54296875 1718.13671875 C-699.78355839 1713.57628819 -704.66267906 1708.67080518 -709.5625 1703.75 C-710.46935547 1702.84701172 -711.37621094 1701.94402344 -712.31054688 1701.01367188 C-716.89550759 1696.42206147 -721.33282728 1691.77189302 -725.55834961 1686.84741211 C-727.28256901 1684.86215085 -729.10877606 1683.01350932 -731 1681.1875 C-734.17089998 1678.05904036 -737.1256996 1674.81894648 -740.02734375 1671.44140625 C-741.96458906 1669.22795963 -743.95084932 1667.06563509 -745.95166016 1664.90966797 C-750.70810378 1659.78119376 -755.24107436 1654.54139246 -759.62890625 1649.08984375 C-762.31831577 1645.79786472 -765.09181954 1642.58755506 -767.875 1639.375 C-773.28625049 1633.10215068 -778.43991422 1626.66124349 -783.5078125 1620.109375 C-785.11074785 1618.04486141 -786.72632058 1615.99067524 -788.34375 1613.9375 C-795.95511867 1604.2534873 -803.30516414 1594.41497103 -810.44287109 1584.37695312 C-811.95332862 1582.25312386 -813.47040237 1580.13415381 -814.98828125 1578.015625 C-865.10942843 1507.80788509 -905.95808856 1430.69880029 -941 1336.1875 C-941.455889 1334.92615077 -941.91211464 1333.66492317 -942.36865234 1332.40380859 C-972.93650925 1247.72784003 -990.59460132 1158.21641457 -999 987.1875 C-998.97317139 985.38249023 -998.97317139 985.38249023 -998.94580078 983.54101562 C-997.38301208 893.15022973 -983.99000588 803.30409308 -895 555.1875 C-894.5059668 554.17075195 -894.01193359 553.15400391 -893.50292969 552.10644531 C-886.69481003 538.13519515 -879.40071629 524.53074843 -871.64550781 511.06396484 C-869.98065685 508.1536868 -868.34204608 505.23008944 -866.7109375 502.30078125 C-860.32749221 490.8501434 -853.67576782 479.65189504 -846.56982422 468.63574219 C-844.90600683 466.04091159 -843.26552978 463.43237299 -841.62890625 460.8203125 C-833.78846538 448.33388808 -825.57556494 436.1794474 -817 424.1875 C-816.46552246 423.43549316 -815.93104492 422.68348633 -815.38037109 421.90869141 C-802.95409105 404.42933777 -789.96883859 387.39345346 -776.34423828 370.83154297 C-774.51603339 368.59559459 -772.72689878 366.3295617 -770.9375 364.0625 C-763.62506116 354.89881082 -755.87754578 346.08171115 -748 337.40234375 C-746.20396471 335.41337498 -744.44046697 333.40186806 -742.6875 331.375 C-738.14604894 326.16995792 -733.4452173 321.11197179 -728.73925781 316.05615234 C-727.55774363 314.78673775 -726.37744713 313.51618892 -725.19824219 312.24462891 C-717.27435996 303.70786119 -709.22301313 295.31205195 -701 287.0625 C-700.22325928 286.28116699 -699.44651855 285.49983398 -698.64624023 284.69482422 C-694.46491498 280.52473546 -690.18945232 276.53734025 -685.71484375 272.68408203 C-683.71427359 270.93814025 -681.84401381 269.09737144 -680 267.1875 C-676.8501997 263.99488688 -673.58780511 261.01588721 -670.1875 258.09375 C-667.64488601 255.87804352 -665.16889802 253.59651408 -662.6875 251.3125 C-658.24749216 247.26228708 -653.68065719 243.43215878 -649.00390625 239.66015625 C-645.50332938 236.7786671 -642.09734225 233.80014638 -638.6875 230.8125 C-632.18383037 225.13395973 -625.50586602 219.73467495 -618.66455078 214.46972656 C-617.07264252 213.24345754 -615.48732658 212.0086448 -613.90234375 210.7734375 C-607.52207258 205.82086292 -601.06158099 200.98303302 -594.5625 196.1875 C-593.82427002 195.64246826 -593.08604004 195.09743652 -592.32543945 194.53588867 C-579.57125204 185.15874213 -566.6183793 176.14065547 -553.4375 167.375 C-552.64597534 166.84803528 -551.85445068 166.32107056 -551.03894043 165.77813721 C-538.84203182 157.66458423 -526.59067031 149.68072303 -514 142.1875 C-513.07429199 141.63481445 -512.14858398 141.08212891 -511.19482422 140.51269531 C-496.34202819 131.67332639 -481.27548463 123.27247133 -466 115.1875 C-464.87996582 114.59324219 -463.75993164 113.99898438 -462.60595703 113.38671875 C-421.81176808 91.811504 -379.60577613 73.4606626 -336.14343262 57.95318604 C-334.01133314 57.19154847 -331.88104788 56.42500387 -329.75097656 55.65771484 C-295.51718393 43.35998098 -260.44394329 33.35702696 -225 25.1875 C-224.30312073 25.02677002 -223.60624146 24.86604004 -222.88824463 24.70043945 C-167.72546364 12.04529259 -111.48534493 4.44339735 -55 1.1875 C-54.16299561 1.1391098 -53.32599121 1.0907196 -52.46362305 1.04086304 C-34.98281038 0.07009112 -17.50198443 -0.01448376 0 0 Z M-71 17.1875 C-71.80091064 17.25302063 -72.60182129 17.31854126 -73.42700195 17.38604736 C-155.81051484 24.12878089 -236.76296694 40.07842047 -498.16455078 150.49755859 C-500.00384602 151.59378743 -501.84582055 152.68553805 -503.69091797 153.77197266 C-516.86844505 161.53274667 -529.65234764 169.83368548 -542.375 178.3125 C-543.12487183 178.81174988 -543.87474365 179.31099976 -544.64733887 179.82537842 C-559.29605469 189.59266125 -573.80551878 199.5557258 -587.75 210.3125 C-589.08164185 211.33404175 -589.08164185 211.33404175 -590.44018555 212.3762207 C-592.18363358 213.7141714 -593.92611872 215.05337807 -595.66748047 216.39404297 C-597.66045573 217.92642692 -599.65820448 219.45203566 -601.66015625 220.97265625 C-615.15209548 231.25461737 -628.19412493 242.06638171 -641 253.1875 C-641.75796875 253.84363281 -642.5159375 254.49976563 -643.296875 255.17578125 C-647.68297115 258.9916849 -652.00288385 262.87930025 -656.3125 266.78125 C-658.4282636 268.67559647 -660.55970015 270.54560435 -662.70336914 272.40795898 C-666.68282345 275.88902818 -670.57855292 279.4483949 -674.43359375 283.06640625 C-675.11659042 283.70735733 -675.7995871 284.34830841 -676.50328064 285.00868225 C-683.77388573 291.86701068 -690.86511451 298.90118161 -697.92163086 305.97875977 C-700.08917642 308.15174335 -702.262125 310.31922363 -704.43554688 312.48632812 C-705.84407127 313.89551229 -707.252286 315.30500606 -708.66015625 316.71484375 C-709.61342552 317.66507668 -709.61342552 317.66507668 -710.58595276 318.63450623 C-714.34381345 322.41183303 -717.91830557 326.30060012 -721.39186096 330.34124756 C-724.12654542 333.48085038 -727.0112375 336.47863609 -729.875 339.5 C-734.79493773 344.7269866 -739.45374682 350.04612862 -743.93359375 355.65625 C-746.00112782 358.18888153 -748.16113341 360.5948116 -750.375 363 C-754.43626167 367.45679324 -758.15413522 372.11712968 -761.84545898 376.87866211 C-764.79644135 380.6790842 -767.82513535 384.3915058 -770.9375 388.0625 C-776.34507705 394.50901311 -781.37062813 401.21418672 -786.36865234 407.98095703 C-788.06971021 410.28178927 -789.77865023 412.57662625 -791.48828125 414.87109375 C-798.88821588 424.82685352 -806.06979387 434.89966459 -813 445.1875 C-813.47646973 445.89197266 -813.95293945 446.59644531 -814.44384766 447.32226562 C-839.10351255 483.82019469 -861.19284071 521.85203222 -881 561.1875 C-881.32033203 561.82238342 -881.64066406 562.45726685 -881.97070312 563.11138916 C-898.96098539 596.82701253 -913.59173658 631.51647183 -926.2479248 667.08099365 C-926.99057558 669.16110289 -927.74074078 671.23834931 -928.49316406 673.31494141 C-958.46199634 756.19596293 -975.59549839 843.88316181 -984 985.1875 C-984.02336426 986.31462402 -984.04672852 987.44174805 -984.07080078 988.60302734 C-985.70219525 1080.79737882 -973.06158127 1173.7429128 -933 1313.1875 C-932.7585022 1313.91199341 -932.51700439 1314.63648682 -932.26818848 1315.38293457 C-918.31247375 1357.09953673 -900.96143173 1397.45580644 -881.59716797 1436.93017578 C-880.17330144 1439.83406254 -878.75940114 1442.74255353 -877.34765625 1445.65234375 C-871.58224367 1457.45052365 -865.21266741 1468.85978379 -858.67773438 1480.24658203 C-857.00162247 1483.18465596 -855.34877787 1486.13461516 -853.703125 1489.08984375 C-847.35480136 1500.47530053 -840.75177597 1511.61916993 -833.68212891 1522.57080078 C-831.78856068 1525.51641242 -829.91512132 1528.47432694 -828.04296875 1531.43359375 C-820.9773507 1542.58042322 -813.81505965 1553.55257347 -806 1564.1875 C-804.81747956 1565.84123541 -803.64203801 1567.49984841 -802.46704102 1569.15893555 C-792.72847748 1582.89060317 -782.79368297 1596.42363944 -772.0859375 1609.41796875 C-769.13720325 1612.99962446 -766.28162829 1616.64763462 -763.4375 1620.3125 C-758.32877665 1626.86696613 -752.95498421 1633.16824818 -747.50732422 1639.44189453 C-746.01564678 1641.16937975 -744.53879474 1642.90840215 -743.06640625 1644.65234375 C-736.29155356 1652.66288266 -729.24987019 1660.37628269 -722.04394531 1668 C-720.0389033 1670.14586436 -718.06089689 1672.31510556 -716.08282471 1674.48579407 C-708.75260852 1682.5045939 -701.12765697 1690.21271216 -693.43505859 1697.8828125 C-691.23547928 1700.07698502 -689.04135993 1702.27651723 -686.84765625 1704.4765625 C-685.4248 1705.89875856 -684.00163391 1707.32064471 -682.578125 1708.7421875 C-681.93522522 1709.38711151 -681.29232544 1710.03203552 -680.62994385 1710.69650269 C-676.82864994 1714.47851225 -672.91897768 1718.08007612 -668.85284424 1721.57620239 C-665.6535777 1724.35839553 -662.58502811 1727.28003615 -659.5 1730.1875 C-654.41421139 1734.95347866 -649.31290334 1739.67406211 -644 1744.1875 C-643.08605469 1744.96867187 -642.17210937 1745.74984375 -641.23046875 1746.5546875 C-628.69486855 1757.23785294 -616.04874002 1767.79076722 -602.91308594 1777.73095703 C-600.66455372 1779.44289465 -598.43011587 1781.17252417 -596.1953125 1782.90234375 C-586.16698252 1790.63987206 -576.01455359 1798.07328118 -565.4921875 1805.125 C-562.14357051 1807.37799862 -558.87770917 1809.72398816 -555.625 1812.11328125 C-550.23905716 1816.0520032 -544.72521115 1819.74929428 -539.125 1823.375 C-538.12960205 1824.02082031 -537.1342041 1824.66664062 -536.10864258 1825.33203125 C-510.73028971 1841.74018903 -484.68905397 1857.00803366 -458 1871.1875 C-457.42288269 1871.49538452 -456.84576538 1871.80326904 -456.25115967 1872.1204834 C-434.90507448 1883.50572391 -413.20389193 1893.75608999 -390.98840332 1903.32806396 C-388.04720725 1904.59932009 -385.11410227 1905.88896463 -382.1796875 1907.17578125 C-352.80189406 1919.9512036 -322.48437156 1930.40151761 -292 1940.1875 C-290.77168457 1940.58388672 -289.54336914 1940.98027344 -288.27783203 1941.38867188 C-217.79863768 1963.92795143 -144.59711713 1976.08036982 -71 1982.1875 C-70.19306702 1982.25646484 -69.38613403 1982.32542969 -68.55474854 1982.39648438 C-17.49992586 1986.75081681 35.00511257 1985.51238732 86 1981.1875 C86.84173767 1981.11724609 87.68347534 1981.04699219 88.55072021 1980.97460938 C162.67972222 1974.73293465 236.36484541 1959.4471339 307 1936.1875 C307.75800903 1935.93871094 308.51601807 1935.68992187 309.29699707 1935.43359375 C329.80371737 1928.69320514 350.02434093 1921.38339976 370 1913.1875 C371.63606201 1912.51702637 371.63606201 1912.51702637 373.30517578 1911.83300781 C389.74352672 1905.06069002 405.92026461 1897.76836523 422 1890.1875 C423.05606445 1889.6910498 424.11212891 1889.19459961 425.20019531 1888.68310547 C478.16642678 1863.72770552 528.67910705 1833.67688523 576 1799.1875 C576.70656738 1798.67396973 577.41313477 1798.16043945 578.14111328 1797.63134766 C599.86699439 1781.81771015 620.96648411 1765.24788872 641.28662109 1747.66259766 C643.00197649 1746.18579838 644.72760487 1744.72200406 646.45703125 1743.26171875 C654.4691671 1736.48308492 662.18609742 1729.43990829 669.8125 1722.23144531 C671.95836436 1720.2264033 674.12760556 1718.24839689 676.29829407 1716.27032471 C684.3170939 1708.94010852 692.02521216 1701.31515697 699.6953125 1693.62255859 C701.88948502 1691.42297928 704.08901723 1689.22885993 706.2890625 1687.03515625 C707.71125856 1685.6123 709.13314471 1684.18913391 710.5546875 1682.765625 C711.19961151 1682.12272522 711.84453552 1681.47982544 712.50900269 1680.81744385 C716.29802187 1677.00910458 719.9061502 1673.09151043 723.4100647 1669.01898193 C726.02855557 1666.0026839 728.76827984 1663.10092281 731.5 1660.1875 C736.09150696 1655.26245537 740.63232877 1650.31351415 745 1645.1875 C746.17369141 1643.81464844 746.17369141 1643.81464844 747.37109375 1642.4140625 C750.26402015 1639.01911565 753.13573885 1635.60665061 756 1632.1875 C756.81911865 1631.20982666 756.81911865 1631.20982666 757.65478516 1630.21240234 C765.82665171 1620.43372121 773.70912478 1610.4752371 781.39111328 1600.30810547 C782.99935947 1598.18834425 784.62031319 1596.07899195 786.24609375 1593.97265625 C843.08664535 1520.29330461 888.37717999 1437.22478914 929 1330.1875 C929.46688226 1328.88864406 929.93384425 1327.58981677 930.40087891 1326.29101562 C939.02712137 1302.23023035 946.33292816 1277.85928923 953 1253.1875 C953.21076172 1252.40846313 953.42152344 1251.62942627 953.63867188 1250.82678223 C976.48741067 1166.04617424 987.0763304 1077.44582797 863.51171875 524.00708008 C862.48693725 522.23399724 861.46125704 520.46143344 860.43457031 518.68945312 C858.64779778 515.57324399 856.92516525 512.42462698 855.20605469 509.27075195 C849.22194378 498.31401448 842.66664046 487.73928751 836 477.1875 C835.35691895 476.1660791 834.71383789 475.1446582 834.05126953 474.09228516 C826.11922617 461.51128443 818.05152435 449.08342273 809.33203125 437.03271484 C808.05535989 435.26418806 806.7909263 433.48769104 805.53125 431.70703125 C787.90714058 406.81480622 769.15256602 382.98648107 749.36083984 359.78662109 C747.95021698 358.12900004 746.54712211 356.46520172 745.14453125 354.80078125 C738.34580731 346.76304809 731.27460557 339.02488683 724.04394531 331.375 C722.0389033 329.22913564 720.06089689 327.05989444 718.08282471 324.88920593 C710.75260852 316.8704061 703.12765697 309.16228784 695.43505859 301.4921875 C693.23547928 299.29801498 691.04135993 297.09848277 688.84765625 294.8984375 C687.4248 293.47624144 686.00163391 292.05435529 684.578125 290.6328125 C683.61377533 289.66542648 683.61377533 289.66542648 682.62994385 288.67849731 C678.82864994 284.89648775 674.91897768 281.29492388 670.85284424 277.79879761 C667.6535777 275.01660447 664.58502811 272.09496385 661.5 269.1875 C656.41421139 264.42152134 651.31290334 259.70093789 646 255.1875 C645.08605469 254.40632812 644.17210937 253.62515625 643.23046875 252.8203125 C639.83439521 249.92587068 636.4205613 247.0529429 633 244.1875 C632.34821777 243.6414209 631.69643555 243.0953418 631.02490234 242.53271484 C621.30994494 234.41410105 611.42115245 226.57722913 601.31884766 218.94726562 C598.81139471 217.04436808 596.31704043 215.12514534 593.82421875 213.203125 C592.92928711 212.51524902 592.03435547 211.82737305 591.11230469 211.11865234 C589.40897327 209.80928239 587.70758358 208.49737975 586.00878906 207.18212891 C561.34613443 188.28457868 534.66672576 171.093968 508 155.1875 C507.06994141 154.63191406 506.13988281 154.07632813 505.18164062 153.50390625 C490.33241518 144.66719025 475.26512537 136.28186086 460 128.1875 C458.9171875 127.60919434 457.834375 127.03088867 456.71875 126.43505859 C416.92823595 105.23302398 375.48523222 87.26074474 333 72.1875 C331.6059265 71.68937582 330.21188485 71.19116245 328.81787109 70.69287109 C247.14431396 41.5811681 161.81786676 23.97574854 75.38555908 17.37176514 C73.14817642 17.19894543 70.91172532 17.01717316 68.67529297 16.83251953 C22.68203544 13.10178722 -25.02712303 13.31850802 -71 17.1875 Z " fill="#000000" transform="translate(999,-0.1875)"/>
<path d="M0 0 C1.08152344 0.26683594 2.16304687 0.53367187 3.27734375 0.80859375 C17.31860282 4.63802804 29.91492101 11.64332913 41 21 C41.72574219 21.61230469 42.45148438 22.22460938 43.19921875 22.85546875 C53.64375928 32.47922024 61.4823333 45.91498748 62.40625 60.1484375 C63.13085441 78.61627377 58.22861355 92.31083041 46.3125 106.625 C30.07897371 124.03801768 4.57571694 134.67581326 -19 136 C-21.61560511 135.98806127 -24.2219456 135.9531638 -26.8359375 135.88671875 C-27.52804321 135.87180389 -28.22014893 135.85688904 -28.93322754 135.84152222 C-31.81490889 135.77833907 -34.69540764 135.71381215 -37.57568359 135.60229492 C-39.70441546 135.52360269 -41.83108424 135.4831932 -43.9609375 135.44921875 C-45.84498291 135.39254028 -45.84498291 135.39254028 -47.76708984 135.3347168 C-51.26654768 135.69794316 -51.26654768 135.69794316 -53.35546875 138.91748047 C-53.89816406 139.93471191 -54.44085937 140.95194336 -55 142 C-63.75626696 154.12211524 -77.9671921 160.80768731 -92.4375 163.375 C-99.93496095 164.30984551 -107.46049878 164.17421184 -115 164 C-114.25621094 163.26910156 -113.51242187 162.53820312 -112.74609375 161.78515625 C-105.41344528 154.34820268 -100.23399122 146.53971146 -96 137 C-95.67 136.26652344 -95.34 135.53304687 -95 134.77734375 C-94.22124233 132.89409805 -93.60604118 130.94571117 -93 129 C-92.76410156 128.26007813 -92.52820313 127.52015625 -92.28515625 126.7578125 C-91.70353296 124.23602975 -91.47173208 122.54027964 -92 120 C-94.59456345 117.07731846 -97.74769609 115.13150995 -101 113 C-112.07749563 104.55804236 -121.12803578 91.80238683 -124 78 C-125.69309716 56.48480715 -121.77764556 42.12869648 -107.9453125 25.53515625 C-81.78838294 -2.54652851 -35.88366261 -9.78645344 0 0 Z " fill="#FEFEFE" transform="translate(982,847)"/>
<path d="M0 0 C11.27468448 9.27855597 22.32038475 21.77294554 24.42773438 36.75390625 C25.31106145 49.01476429 25.25847936 59.70043514 19.42773438 70.75390625 C19.028125 71.59566406 18.62851563 72.43742188 18.21679688 73.3046875 C12.71912919 83.7502561 2.81751066 93.25343645 -7.57226562 98.75390625 C-7.51418567 112.72213613 -1.37992842 124.52448325 6.42773438 135.75390625 C7.24229006 136.9817116 8.05520062 138.21061291 8.86523438 139.44140625 C9.63867188 140.58609375 9.63867188 140.58609375 10.42773438 141.75390625 C-5.50172785 142.72095623 -21.13320095 138.80262221 -33.46289062 128.2890625 C-37.71631 124.15379367 -41.70289519 119.9709434 -44.57226562 114.75390625 C-44.57226562 114.09390625 -44.57226562 113.43390625 -44.57226562 112.75390625 C-45.64476562 112.91890625 -46.71726562 113.08390625 -47.82226562 113.25390625 C-53.39485205 113.96551351 -58.96490136 113.83801671 -64.57226562 113.75390625 C-64.36730469 113.11324219 -64.16234375 112.47257813 -63.95117188 111.8125 C-58.61545593 94.68204354 -58.9888018 77.57596583 -67.2722168 61.54907227 C-78.0996926 41.58703936 -97.00401766 28.16289221 -118.57226562 21.75390625 C-127.48255313 19.5129842 -136.44480097 17.79466619 -145.57226562 16.75390625 C-138.67690691 1.69737417 -122.07279874 -7.87763919 -107.38476562 -13.99609375 C-72.76268176 -26.21321664 -29.53181964 -23.40534277 0 0 Z " fill="#FDFDFD" transform="translate(1117.572265625,817.24609375)"/>
<path d="M0 0 C5.28 0 10.56 0 16 0 C16.33 3.3 16.66 6.6 17 10 C17.53625 9.0925 18.0725 8.185 18.625 7.25 C20.70131034 3.73624404 23.46009629 1.96822038 27 0 C29.9763231 -0.56212132 32.88373377 -0.56171616 35.90625 -0.53125 C36.74917603 -0.5350769 37.59210205 -0.53890381 38.46057129 -0.54284668 C40.23560792 -0.54555816 42.01068502 -0.53825057 43.78564453 -0.52148438 C46.49212294 -0.50006235 49.19594723 -0.52131049 51.90234375 -0.546875 C53.63281832 -0.54423159 55.36329125 -0.53910632 57.09375 -0.53125 C57.89703735 -0.53934692 58.70032471 -0.54744385 59.5279541 -0.55578613 C64.80961178 -0.46827574 67.79361655 0.53647974 72 4 C76.00370776 8.54474935 77.12290687 10.88952433 77.17700195 16.89916992 C77.19625481 18.75701363 77.19625481 18.75701363 77.21589661 20.65238953 C77.22406609 22.0117452 77.23150942 23.3711054 77.23828125 24.73046875 C77.24235678 25.41494898 77.2464323 26.09942921 77.25063133 26.80465126 C77.2714979 30.43071821 77.28579447 34.05674731 77.29516602 37.68286133 C77.30620465 41.41756629 77.3405723 45.15167116 77.38033772 48.88616467 C77.40656864 51.76621051 77.41486374 54.64611514 77.41844749 57.52626991 C77.42330037 58.90211328 77.4348773 60.2779509 77.45348549 61.65367699 C77.62327376 75.0435474 77.62327376 75.0435474 73 81 C68.83251937 84.86254302 65.785331 86.12798286 60.16137695 86.11352539 C58.69019157 86.11341209 58.69019157 86.11341209 57.18928528 86.11329651 C56.13295395 86.10813522 55.07662262 86.10297394 53.98828125 86.09765625 C52.90491989 86.0962413 51.82155853 86.09482635 50.70536804 86.09336853 C47.24105075 86.08776559 43.7767978 86.07521258 40.3125 86.0625 C37.96549572 86.05748538 35.61849044 86.05292241 33.27148438 86.04882812 C27.51427811 86.03864559 21.75721118 86.01907063 16 86 C16 97.55 16 109.1 16 121 C10.72 121 5.44 121 0 121 C0 81.07 0 41.14 0 0 Z " fill="#FAFAFA" transform="translate(1441,1081)"/>
<path d="M0 0 C6.27 0 12.54 0 19 0 C20.12494873 2.25513428 21.24989746 4.51026855 22.40893555 6.83374023 C26.13899906 14.31048675 29.87130404 21.78611269 33.60469341 29.261199 C35.86668229 33.79038045 38.12793044 38.31992846 40.38745117 42.8503418 C42.57075772 47.22787346 44.75605514 51.60440603 46.94269753 55.98027229 C47.77381192 57.64433922 48.60422579 59.30875623 49.43390465 60.97353935 C53.47086792 69.07279569 57.50209305 77.14344561 62 85 C64.08943138 82.25901347 65.84976759 79.59114447 67.44140625 76.53125 C68.17472168 75.1225061 68.17472168 75.1225061 68.92285156 73.68530273 C69.46393555 72.63415283 70.00501953 71.58300293 70.5625 70.5 C71.1409668 69.38246338 71.71943359 68.26492676 72.31542969 67.11352539 C76.83272528 58.35247889 81.2392531 49.53650853 85.63671875 40.71484375 C86.51034813 38.96302292 86.51034813 38.96302292 87.40162659 37.17581177 C89.78301014 32.39857375 92.16428482 27.62131387 94.53421021 22.83837891 C96.22279584 19.43104959 97.91585238 16.02597123 99.609375 12.62109375 C100.12340378 11.57952621 100.63743256 10.53795868 101.16703796 9.46482849 C101.64268692 8.51020218 102.11833588 7.55557587 102.60839844 6.57202148 C103.02361755 5.73412582 103.43883667 4.89623016 103.86663818 4.03294373 C105 2 105 2 107 0 C112.94 0 118.88 0 125 0 C125 38.28 125 76.56 125 116 C119.39 116 113.78 116 108 116 C107.67 89.27 107.34 62.54 107 35 C95.44331427 57.28034979 95.44331427 57.28034979 84.17184448 79.69512939 C78.10105258 91.98276605 71.87696268 104.13850664 65 116 C63.35 116 61.7 116 60 116 C54.04772587 104.79835848 48.19504993 93.54573465 42.38665771 82.26895142 C41.65175116 80.84236927 40.91631382 79.41606037 40.18023682 77.99008179 C32.64855475 63.39415178 25.34634726 48.69269451 18 34 C17.67 61.06 17.34 88.12 17 116 C11.39 116 5.78 116 0 116 C0 77.72 0 39.44 0 0 Z " fill="#FAFAFA" transform="translate(379,1051)"/>
<path d="M0 0 C4.95 0 9.9 0 15 0 C15.33 3.3 15.66 6.6 16 10 C16.53625 9.0925 17.0725 8.185 17.625 7.25 C19.70104302 3.73669642 22.46121538 1.96884655 26 0 C28.96470947 -0.56185368 31.86004886 -0.56171953 34.87109375 -0.53125 C36.13192528 -0.53699036 36.13192528 -0.53699036 37.41822815 -0.54284668 C39.18906864 -0.54555842 40.95994968 -0.538249 42.73071289 -0.52148438 C45.42621165 -0.5000896 48.11903732 -0.52129573 50.81445312 -0.546875 C52.5416725 -0.54423107 54.26889022 -0.53910473 55.99609375 -0.53125 C56.79421982 -0.53934692 57.59234589 -0.54744385 58.41465759 -0.55578613 C64.06800892 -0.46210795 67.44601014 0.56471144 72 4 C77.34502361 10.32577682 76.5848406 17.53520848 76.53125 25.47265625 C76.53394869 26.88317634 76.53783424 28.29369461 76.54284668 29.70420837 C76.54872223 32.6503991 76.54024127 35.59610254 76.52148438 38.54223633 C76.49867391 42.30728637 76.51184196 46.07119699 76.53577423 49.83620548 C76.55026758 52.7454427 76.54561063 55.65441223 76.53526306 58.56365776 C76.53260658 59.95145238 76.5358274 61.33927179 76.54518127 62.72703743 C76.61567593 76.12101014 76.61567593 76.12101014 72 81 C67.77656478 84.81139276 64.80789931 86.12804087 59.16137695 86.11352539 C57.69019157 86.11341209 57.69019157 86.11341209 56.18928528 86.11329651 C55.13295395 86.10813522 54.07662262 86.10297394 52.98828125 86.09765625 C51.90491989 86.0962413 50.82155853 86.09482635 49.70536804 86.09336853 C46.24105075 86.08776559 42.7767978 86.07521258 39.3125 86.0625 C36.96549572 86.05748538 34.61849044 86.05292241 32.27148438 86.04882812 C26.51427811 86.03864559 20.75721118 86.01907063 15 86 C15 97.55 15 109.1 15 121 C10.05 121 5.1 121 0 121 C0 81.07 0 41.14 0 0 Z " fill="#FBFBFB" transform="translate(1545,1081)"/>
<path d="M0 0 C7.68632272 -0.09912916 15.37227046 -0.17159374 23.05908203 -0.21972656 C25.67210373 -0.23979933 28.28508075 -0.26706358 30.89794922 -0.30175781 C34.66124522 -0.35046435 38.42394549 -0.37301311 42.1875 -0.390625 C43.34926758 -0.41127014 44.51103516 -0.43191528 45.70800781 -0.45318604 C53.06172555 -0.45520481 59.06087213 0.23399166 64.55126953 5.48309326 C68.78573389 10.30764567 69.12411674 13.89523952 69.11352539 20.13354492 C69.11367142 20.85574722 69.11381744 21.57794952 69.1139679 22.32203674 C69.11327145 24.70821134 69.1054916 27.09430779 69.09765625 29.48046875 C69.09579112 31.1352789 69.09436766 32.79008961 69.09336853 34.44490051 C69.08955085 38.79981003 69.07972695 43.15468618 69.06866455 47.50958252 C69.05843433 51.95364938 69.05386745 56.39772163 69.04882812 60.84179688 C69.03810402 69.56121493 69.02051327 78.28059947 69 87 C63.72 87 58.44 87 53 87 C52.67 83.7 52.34 80.4 52 77 C51.46375 77.9075 50.9275 78.815 50.375 79.75 C48.30387064 83.25498815 45.51691452 85.01761136 42 87 C39.12756963 87.39545462 36.64959834 87.58574825 33.78515625 87.56640625 C33.01119003 87.57260483 32.23722382 87.57880341 31.43980408 87.58518982 C29.81022391 87.59226277 28.18057109 87.58915818 26.55102539 87.57641602 C24.07236274 87.56255515 21.59748472 87.59664482 19.11914062 87.63476562 C17.52864492 87.63571706 15.93814454 87.63385666 14.34765625 87.62890625 C13.61515152 87.64216446 12.88264679 87.65542267 12.12794495 87.66908264 C6.5660379 87.56962087 2.95285922 85.94786949 -1 82 C-5.10155341 75.8778091 -4.48796866 69.28623536 -4.44604492 62.20507812 C-4.43752155 60.005562 -4.46635511 57.80863606 -4.49804688 55.609375 C-4.499659 54.19791744 -4.49908114 52.78645532 -4.49609375 51.375 C-4.49794678 50.10398437 -4.4997998 48.83296875 -4.50170898 47.5234375 C-3.75046278 42.24753229 -1.3284717 39.19886471 2.5625 35.6875 C5.9392909 33.34972168 8.46697176 32.87525762 12.47143555 32.88647461 C13.82249641 32.88658791 13.82249641 32.88658791 15.20085144 32.88670349 C16.16968765 32.89186478 17.13852386 32.89702606 18.13671875 32.90234375 C19.62858452 32.90446617 19.62858452 32.90446617 21.15058899 32.90663147 C24.32958982 32.91223239 27.50852043 32.92478504 30.6875 32.9375 C32.84179586 32.94251488 34.99609282 32.94707781 37.15039062 32.95117188 C42.43362084 32.96220213 47.71679851 32.97946738 53 33 C53 27.72 53 22.44 53 17 C35.51 17 18.02 17 0 17 C0 11.39 0 5.78 0 0 Z " fill="#F7F7F7" transform="translate(1346,1080)"/>
<path d="M0 0 C1.10927856 -0.00145523 2.21855713 -0.00291046 3.3614502 -0.00440979 C5.7014428 -0.00275342 8.04144658 0.00877838 10.38134766 0.02954102 C13.95652699 0.05849476 17.53022254 0.05014336 21.10546875 0.03710938 C23.38281968 0.04334724 25.66016595 0.05173855 27.9375 0.0625 C29.00327271 0.05956436 30.06904541 0.05662872 31.16711426 0.05360413 C37.45014688 0.13320058 42.26174093 0.57093584 47.11328125 4.99609375 C51.40120341 10.50299044 51.6083355 14.54461117 51.56640625 21.3203125 C51.56539917 22.08396118 51.56439209 22.84760986 51.56335449 23.63439941 C51.55812664 26.48414616 51.54416536 29.33387148 51.53125 32.18359375 C51.510625 38.55671875 51.49 44.92984375 51.46875 51.49609375 C32.32875 51.49609375 13.18875 51.49609375 -6.53125 51.49609375 C-6.53125 57.76609375 -6.53125 64.03609375 -6.53125 70.49609375 C12.60875 70.49609375 31.74875 70.49609375 51.46875 70.49609375 C51.46875 75.77609375 51.46875 81.05609375 51.46875 86.49609375 C43.39271564 86.63204219 35.31758149 86.741948 27.2407074 86.80696678 C23.4896265 86.83818422 19.73937383 86.88047617 15.98876953 86.94873047 C12.36417594 87.01427332 8.74037516 87.04987179 5.11523438 87.06535721 C3.73734058 87.07638179 2.35948667 87.09791075 0.98193359 87.13047409 C-6.46834542 87.29946685 -12.12474971 87.28787163 -18.00024414 82.37393188 C-21.62663905 77.92601772 -22.90620072 73.93369086 -22.95117188 68.25048828 C-22.96708374 67.03547638 -22.98299561 65.82046448 -22.99938965 64.56863403 C-22.99969177 62.61846878 -22.99969177 62.61846878 -23 60.62890625 C-23.00711089 59.26658824 -23.01481123 57.9042732 -23.02307129 56.54196167 C-23.03648355 53.69244047 -23.03809999 50.84319617 -23.03222656 47.99365234 C-23.02633667 44.35978913 -23.05690488 40.72726489 -23.09734344 37.09366035 C-23.123321 34.28129036 -23.12608885 31.46923839 -23.12245178 28.65676498 C-23.12494637 26.67158405 -23.14957194 24.68647021 -23.17468262 22.70144653 C-23.118851 15.37366706 -22.66554115 9.99359785 -17.53125 4.49609375 C-12.28188444 -0.50454999 -6.86081522 -0.07231772 0 0 Z " fill="#F9F9F9" transform="translate(554.53125,1080.50390625)"/>
<path d="M0 0 C7.31093759 -0.09061562 14.6215648 -0.163896 21.93294621 -0.20724869 C25.32847638 -0.22806311 28.72360015 -0.25626588 32.11889648 -0.30175781 C36.02843243 -0.35380789 39.93780773 -0.37299618 43.84765625 -0.390625 C45.05833267 -0.41127014 46.26900909 -0.43191528 47.51637268 -0.45318604 C54.20452715 -0.45495752 58.74425323 -0.33151014 64 4 C67.47471741 9.11358415 68.49665423 12.37101046 68.45410156 18.67944336 C68.45468567 19.41198334 68.45526978 20.14452332 68.45587158 20.89926147 C68.45310691 23.2966212 68.42209449 25.69270396 68.390625 28.08984375 C68.38315679 29.76135072 68.3774666 31.43286649 68.37347412 33.10438538 C68.35826332 37.48577405 68.31902152 41.8666252 68.2746582 46.24780273 C68.23360664 50.72567475 68.21544208 55.20363433 68.1953125 59.68164062 C68.15252206 68.45470023 68.08221022 77.22722114 68 86 C62.72 86 57.44 86 52 86 C51.505 81.545 51.505 81.545 51 77 C50.113125 78.11375 49.22625 79.2275 48.3125 80.375 C45.80083288 83.52918661 43.84534136 84.77645255 40 86 C37.3918615 86.21086248 34.89271154 86.32763588 32.28515625 86.3359375 C31.18511513 86.3459227 31.18511513 86.3459227 30.06285095 86.35610962 C28.51726781 86.36619958 26.97164143 86.37092777 25.42602539 86.37060547 C23.07299506 86.37498049 20.72183983 86.41133943 18.36914062 86.44921875 C16.86198553 86.45508757 15.3548216 86.45905653 13.84765625 86.4609375 C12.80207298 86.48249405 12.80207298 86.48249405 11.73536682 86.50448608 C6.694312 86.45777886 3.89612669 85.12880011 0 82 C-5.74601745 75.63279147 -5.21610173 70.01137492 -5.24023438 61.76806641 C-5.2498982 59.77103695 -5.28108516 57.77414948 -5.3125 55.77734375 C-5.36188158 43.59243786 -5.36188158 43.59243786 -2 38 C2.13352198 34.0784535 5.84143247 31.7406822 11.58496094 31.77294922 C12.48559265 31.77310028 13.38622437 31.77325134 14.31414795 31.77340698 C15.75966034 31.78889084 15.75966034 31.78889084 17.234375 31.8046875 C18.72411835 31.80893234 18.72411835 31.80893234 20.24395752 31.81326294 C23.41276144 31.82444857 26.58128165 31.84955038 29.75 31.875 C31.8997355 31.88503188 34.04947543 31.89415737 36.19921875 31.90234375 C41.46625497 31.92438264 46.7330794 31.95890158 52 32 C52 26.72 52 21.44 52 16 C34.84 16 17.68 16 0 16 C0 10.72 0 5.44 0 0 Z " fill="#FBFBFB" transform="translate(1094,1081)"/>
<path d="M0 0 C5.28 0 10.56 0 16 0 C16.33 13.86 16.66 27.72 17 42 C18.98 39.525 18.98 39.525 21 37 C25.36713149 33.45854595 29.38938012 33.5467795 34.7734375 33.56640625 C35.6154068 33.5611644 36.4573761 33.55592255 37.32485962 33.55052185 C39.10165304 33.54411438 40.87848895 33.54542213 42.65527344 33.55395508 C45.3595016 33.56245131 48.06160601 33.53371009 50.765625 33.50195312 C52.4973952 33.50034045 54.22916912 33.50091991 55.9609375 33.50390625 C56.76220062 33.49267227 57.56346375 33.48143829 58.38900757 33.46986389 C64.06307711 33.53952131 67.39628226 34.61196581 72 38 C75.666942 42.50687582 76.5724986 45.98460652 76.45410156 51.65771484 C76.45468567 52.39986237 76.45526978 53.14200989 76.45587158 53.90664673 C76.45310103 56.34189831 76.42206005 58.77590171 76.390625 61.2109375 C76.3831589 62.90629406 76.37746771 64.60165929 76.37347412 66.29702759 C76.35824676 70.74583013 76.31899039 75.19410518 76.2746582 79.6427002 C76.23364264 84.18750881 76.21544972 88.73240316 76.1953125 93.27734375 C76.15249278 102.18516415 76.08216709 111.09245556 76 120 C70.72 120 65.44 120 60 120 C60 96.9 60 73.8 60 50 C45.48 50 30.96 50 16 50 C16 73.1 16 96.2 16 120 C10.72 120 5.44 120 0 120 C0 80.4 0 40.8 0 0 Z " fill="#F4F4F4" transform="translate(986,1047)"/>
<path d="M0 0 C1.12910294 -0.0038269 2.25820587 -0.00765381 3.42152405 -0.01159668 C5.80438124 -0.01431318 8.18726839 -0.00697046 10.57006836 0.00976562 C14.20689801 0.03115731 17.84174761 0.00996352 21.47851562 -0.015625 C23.79818142 -0.01298129 26.117846 -0.00785542 28.4375 0 C30.0612278 -0.01214539 30.0612278 -0.01214539 31.71775818 -0.02453613 C38.11904671 0.05450108 42.09970209 0.67923562 47.28515625 4.53125 C51.59196737 10.0953721 51.80717783 14.58974265 51.53515625 21.46875 C51.51710938 22.34337891 51.4990625 23.21800781 51.48046875 24.11914062 C51.43373978 26.25699108 51.36201066 28.39427045 51.28515625 30.53125 C46.00515625 30.53125 40.72515625 30.53125 35.28515625 30.53125 C35.28515625 25.91125 35.28515625 21.29125 35.28515625 16.53125 C21.75515625 16.53125 8.22515625 16.53125 -5.71484375 16.53125 C-5.71484375 34.35125 -5.71484375 52.17125 -5.71484375 70.53125 C7.81515625 70.53125 21.34515625 70.53125 35.28515625 70.53125 C35.28515625 65.91125 35.28515625 61.29125 35.28515625 56.53125 C40.56515625 56.53125 45.84515625 56.53125 51.28515625 56.53125 C51.39360652 59.57388267 51.47267688 62.61261204 51.53515625 65.65625 C51.56867188 66.5121875 51.6021875 67.368125 51.63671875 68.25 C51.72346577 73.8885561 51.07231242 77.06806231 47.28515625 81.53125 C43.07285414 85.33259581 40.07711493 86.64409921 34.44995117 86.70825195 C33.46850632 86.72108719 32.48706146 86.73392242 31.47587585 86.74714661 C30.41649307 86.75453354 29.35711029 86.76192047 28.265625 86.76953125 C26.62863396 86.78163887 26.62863396 86.78163887 24.95857239 86.79399109 C22.64777208 86.80782661 20.33695139 86.81855114 18.02612305 86.82641602 C14.49683838 86.84363204 10.96848964 86.88752459 7.43945312 86.93164062 C5.1940173 86.94176743 2.94857352 86.95028357 0.703125 86.95703125 C-0.87684013 86.98329338 -0.87684013 86.98329338 -2.48872375 87.01008606 C-8.57425648 86.99211895 -12.08550513 86.59430014 -16.71484375 82.53125 C-20.91145732 77.88094848 -21.83610206 74.69877127 -21.8918457 68.51855469 C-21.91109856 66.66082428 -21.91109856 66.66082428 -21.93074036 64.76556396 C-21.93890922 63.41142173 -21.94635267 62.05727494 -21.953125 60.703125 C-21.95720053 60.01956184 -21.96127605 59.33599869 -21.96547508 58.6317215 C-21.98631931 55.01213383 -22.00062692 51.39258387 -22.01000977 47.77294922 C-22.02105838 44.04612013 -22.0554441 40.31989072 -22.09518147 36.59327316 C-22.12140885 33.71751851 -22.12970706 30.84190529 -22.13329124 27.96604156 C-22.1381431 26.59298919 -22.14971709 25.21994254 -22.16832924 23.84700775 C-22.34241146 10.15226061 -22.34241146 10.15226061 -17.71484375 4.53125 C-12.44187902 -0.50396348 -6.89087662 -0.05144714 0 0 Z " fill="#FBFBFB" transform="translate(907.71484375,1080.46875)"/>
<path d="M0 0 C5.28 0 10.56 0 16 0 C16.33 2.97 16.66 5.94 17 9 C17.928125 7.88625 18.85625 6.7725 19.8125 5.625 C21.82715726 3.20741129 23.33064613 1.77956925 26 0 C28.90361861 -0.20847348 31.70888946 -0.30401425 34.61328125 -0.30078125 C35.88403755 -0.30720894 35.88403755 -0.30720894 37.1804657 -0.31376648 C38.97341011 -0.31950923 40.76637781 -0.32001044 42.55932617 -0.31567383 C45.29191318 -0.31252373 48.02340702 -0.33593863 50.75585938 -0.36132812 C52.49999864 -0.36360223 54.2441408 -0.3643041 55.98828125 -0.36328125 C56.80097977 -0.372491 57.61367828 -0.38170074 58.45100403 -0.39118958 C64.05439437 -0.34590144 68.34899043 0.58197702 72.64453125 4.5 C76.61364443 9.59745639 77.12435099 12.75726412 77.11352539 19.13354492 C77.11367142 19.85574722 77.11381744 20.57794952 77.1139679 21.32203674 C77.11327145 23.70821134 77.1054916 26.09430779 77.09765625 28.48046875 C77.09579112 30.1352789 77.09436766 31.79008961 77.09336853 33.44490051 C77.08955085 37.79981003 77.07972695 42.15468618 77.06866455 46.50958252 C77.05843433 50.95364938 77.05386745 55.39772163 77.04882812 59.84179688 C77.03810402 68.56121493 77.02051327 77.28059947 77 86 C71.39 86 65.78 86 60 86 C60 62.9 60 39.8 60 16 C45.48 16 30.96 16 16 16 C16 39.1 16 62.2 16 86 C10.72 86 5.44 86 0 86 C0 57.62 0 29.24 0 0 Z " fill="#F3F3F3" transform="translate(717,1081)"/>
<path d="M0 0 C5.28 0 10.56 0 16 0 C16 8.91 16 17.82 16 27 C25.24 27 34.48 27 44 27 C44 32.28 44 37.56 44 43 C34.76 43 25.52 43 16 43 C16 60.82 16 78.64 16 97 C25.24 97 34.48 97 44 97 C44 102.28 44 107.56 44 113 C39.4091398 113.09212428 34.82151885 113.17166281 30.23046875 113.21972656 C28.67078756 113.23977222 27.11118087 113.26701657 25.55175781 113.30175781 C23.30254686 113.35059126 21.0543341 113.37303815 18.8046875 113.390625 C17.76838699 113.42159271 17.76838699 113.42159271 16.71115112 113.45318604 C11.664373 113.45549546 8.89671259 112.132553 5 109 C0.90533379 104.46266717 -0.12662302 101.37321098 -0.11352539 95.33520508 C-0.11344986 94.17422806 -0.11337433 93.01325104 -0.11329651 91.8170929 C-0.10813522 90.56389755 -0.10297394 89.31070221 -0.09765625 88.01953125 C-0.0962413 86.73640549 -0.09482635 85.45327972 -0.09336853 84.13127136 C-0.08955405 80.72329759 -0.07973291 77.31536657 -0.06866455 73.90740967 C-0.05842743 70.42851337 -0.05386598 66.94961015 -0.04882812 63.47070312 C-0.03810967 56.64711611 -0.02052152 49.82356451 0 43 C-6.93 43 -13.86 43 -21 43 C-21 37.72 -21 32.44 -21 27 C-14.07 27 -7.14 27 0 27 C0 18.09 0 9.18 0 0 Z " fill="#FBFBFB" transform="translate(1205,1054)"/>
<path d="M0 0 C14.85 0 29.7 0 45 0 C45 17.82 45 35.64 45 54 C30.15 54 15.3 54 0 54 C0 36.18 0 18.36 0 0 Z " fill="#020202" transform="translate(1457,1097)"/>
<path d="M0 0 C14.52 0 29.04 0 44 0 C44 17.82 44 35.64 44 54 C29.48 54 14.96 54 0 54 C0 36.18 0 18.36 0 0 Z " fill="#000000" transform="translate(1561,1097)"/>
<path d="M0 0 C5.28 0 10.56 0 16 0 C16.33 3.3 16.66 6.6 17 10 C17.391875 9.2575 17.78375 8.515 18.1875 7.75 C20.51361889 4.22071616 23.21880145 1.89059927 27 0 C31.38984181 -0.29948577 35.78865563 -0.27818764 40.1875 -0.3125 C41.40759766 -0.34150391 42.62769531 -0.37050781 43.88476562 -0.40039062 C50.78518635 -0.44911712 55.55589336 -0.44221422 61 4 C65.0697658 8.37171617 65.43503072 11.91914593 65.3515625 17.63671875 C65.31804687 18.54035156 65.28453125 19.44398437 65.25 20.375 C65.23195313 21.30183594 65.21390625 22.22867187 65.1953125 23.18359375 C65.14845508 25.45617868 65.07672028 27.72822715 65 30 C59.72 30 54.44 30 49 30 C49 25.38 49 20.76 49 16 C38.11 16 27.22 16 16 16 C16 39.1 16 62.2 16 86 C10.72 86 5.44 86 0 86 C0 57.62 0 29.24 0 0 Z " fill="#FAFAFA" transform="translate(632,1081)"/>
<path d="M0 0 C4.95 0 9.9 0 15 0 C15 39.27 15 78.54 15 119 C10.05 119 5.1 119 0 119 C0 79.73 0 40.46 0 0 Z " fill="#FFFFFF" transform="translate(986,1048)"/>
<path d="M0 0 C5.28 0 10.56 0 16 0 C16 28.38 16 56.76 16 86 C10.72 86 5.44 86 0 86 C0 57.62 0 29.24 0 0 Z " fill="#FDFDFD" transform="translate(717,1081)"/>
<path d="M0 0 C13.86 0 27.72 0 42 0 C42 7.26 42 14.52 42 22 C28.14 22 14.28 22 0 22 C0 14.74 0 7.48 0 0 Z " fill="#080808" transform="translate(1357,1129)"/>
<path d="M0 0 C13.53 0 27.06 0 41 0 C41 7.26 41 14.52 41 22 C27.47 22 13.94 22 0 22 C0 14.74 0 7.48 0 0 Z " fill="#040404" transform="translate(1105,1129)"/>
<path d="M0 0 C13.53 0 27.06 0 41 0 C41 6.27 41 12.54 41 19 C27.47 19 13.94 19 0 19 C0 12.73 0 6.46 0 0 Z " fill="#020202" transform="translate(548,1097)"/>
<path d="M0 0 C12.87 0 25.74 0 39 0 C39 5.28 39 10.56 39 16 C26.13 16 13.26 16 0 16 C0 10.72 0 5.44 0 0 Z " fill="#F9F9F9" transform="translate(1276,1112)"/>
<path d="M0 0 C12.87 0 25.74 0 39 0 C39 5.28 39 10.56 39 16 C26.13 16 13.26 16 0 16 C0 10.72 0 5.44 0 0 Z " fill="#F8F8F8" transform="translate(820,1112)"/>
</svg>
